<svg id="Layer_1" data-name="Layer 1" xmlns="http://www.w3.org/2000/svg" viewBox="0 0 40 30"><defs><style>.cls-1{opacity:0.41;}.cls-2{fill:none;stroke:#1a8aca;stroke-width:0.1px;}.cls-2,.cls-3,.cls-4{stroke-linejoin:round;}.cls-3{fill:#fff;}.cls-3,.cls-4{stroke:#6a6a6a;stroke-linecap:round;stroke-width:0.5px;}.cls-4{fill:#f7f7f7;}</style></defs><title>electrical</title><g id="grid"><g class="cls-1"><line class="cls-2" x1="13461.259" y1="5755.9" x2="37.243" y2="-937.068"/><line class="cls-2" x1="13443.471" y1="5773.687" x2="19.456" y2="-919.28"/><line class="cls-2" x1="13425.684" y1="5791.475" x2="1.668" y2="-901.492"/><line class="cls-2" x1="13407.896" y1="5809.262" x2="-16.119" y2="-883.705"/><line class="cls-2" x1="13390.109" y1="5827.05" x2="-33.907" y2="-865.917"/><line class="cls-2" x1="13372.321" y1="5844.837" x2="-51.694" y2="-848.13"/><line class="cls-2" x1="13354.533" y1="5862.625" x2="-69.482" y2="-830.342"/><line class="cls-2" x1="13336.746" y1="5880.413" x2="-87.27" y2="-812.555"/><line class="cls-2" x1="13318.958" y1="5898.2" x2="-105.057" y2="-794.767"/><line class="cls-2" x1="13301.171" y1="5915.988" x2="-122.845" y2="-776.979"/><line class="cls-2" x1="13283.383" y1="5933.775" x2="-140.632" y2="-759.192"/><line class="cls-2" x1="13265.596" y1="5951.563" x2="-158.42" y2="-741.404"/><line class="cls-2" x1="13247.808" y1="5969.35" x2="-176.207" y2="-723.617"/><line class="cls-2" x1="13230.02" y1="5987.138" x2="-193.995" y2="-705.829"/><line class="cls-2" x1="13212.233" y1="6004.926" x2="-211.783" y2="-688.042"/><line class="cls-2" x1="13194.445" y1="6022.713" x2="-229.57" y2="-670.254"/><line class="cls-2" x1="13176.658" y1="6040.501" x2="-247.358" y2="-652.466"/><line class="cls-2" x1="13158.87" y1="6058.288" x2="-265.145" y2="-634.679"/><line class="cls-2" x1="13141.083" y1="6076.076" x2="-282.933" y2="-616.891"/><line class="cls-2" x1="13123.295" y1="6093.863" x2="-300.72" y2="-599.104"/><line class="cls-2" x1="13105.507" y1="6111.651" x2="-318.508" y2="-581.316"/></g></g><polyline class="cls-3" points="22.026 9.513 22.026 8.724 22.026 7.046"/><polyline class="cls-3" points="19.385 9.513 19.385 8.724 19.385 7.046"/><polyline class="cls-3" points="16.745 9.616 16.745 8.827 16.745 7.149"/><polyline class="cls-3" points="22.026 25.092 22.026 22.739 22.026 22.739"/><polyline class="cls-3" points="19.385 25.092 19.385 22.739 19.385 22.739"/><polyline class="cls-3" points="16.745 25.043 16.745 22.69 16.745 22.69"/><circle class="cls-3" cx="16.745" cy="25.316" r="0.673"/><circle class="cls-3" cx="19.385" cy="25.316" r="0.673"/><circle class="cls-3" cx="22.026" cy="25.316" r="0.673"/><polyline class="cls-3" points="24.714 25.129 24.714 22.775 24.714 22.775"/><circle class="cls-3" cx="24.714" cy="25.353" r="0.673"/><circle class="cls-3" cx="22.026" cy="6.975" r="0.673"/><polyline class="cls-3" points="24.714 9.513 24.714 8.724 24.714 7.046"/><circle class="cls-3" cx="24.714" cy="6.975" r="0.673"/><circle class="cls-3" cx="19.385" cy="6.975" r="0.673"/><circle class="cls-3" cx="16.745" cy="6.975" r="0.673"/><polyline class="cls-3" points="14.038 20.123 13.249 20.123 11.571 20.123"/><polyline class="cls-3" points="14.038 12.213 13.249 12.213 6.278 12.213"/><line class="cls-3" x1="10.227" y1="12.222" x2="6.278" y2="16.171"/><polyline class="cls-3" points="14.141 14.854 13.352 14.854 11.559 14.854 6.278 20.135"/><circle class="cls-3" cx="11.571" cy="20.123" r="0.673"/><circle class="cls-3" cx="6.278" cy="12.213" r="0.673"/><circle class="cls-3" cx="6.278" cy="16.171" r="0.673"/><circle class="cls-3" cx="6.278" cy="20.135" r="0.673"/><polyline class="cls-3" points="27.422 12.187 28.21 12.187 29.888 12.187"/><polyline class="cls-3" points="27.422 20.097 28.21 20.097 35.182 20.097"/><line class="cls-3" x1="31.233" y1="20.087" x2="35.182" y2="16.138"/><polyline class="cls-3" points="27.318 17.456 28.107 17.456 29.9 17.456 35.182 12.175"/><circle class="cls-3" cx="29.888" cy="12.187" r="0.673"/><circle class="cls-3" cx="35.182" cy="20.097" r="0.673"/><circle class="cls-3" cx="35.182" cy="16.138" r="0.673"/><circle class="cls-3" cx="35.182" cy="12.175" r="0.673"/><rect class="cls-4" x="14.214" y="9.589" width="13.094" height="13.094" rx="1" ry="1"/><rect class="cls-4" x="16.439" y="11.814" width="8.644" height="8.644"/></svg>