<svg id="Layer_1" data-name="Layer 1" xmlns="http://www.w3.org/2000/svg" viewBox="0 0 40 30"><defs><style>.cls-1{opacity:0.41;}.cls-2,.cls-6,.cls-7{fill:none;}.cls-2{stroke:#1a8aca;stroke-width:0.1px;}.cls-2,.cls-3,.cls-5,.cls-6,.cls-7{stroke-linejoin:round;}.cls-3{fill:#f7f7f7;}.cls-3,.cls-5,.cls-6,.cls-7{stroke:#6a6a6a;stroke-linecap:round;stroke-width:0.5px;}.cls-4,.cls-5{fill:#fff;}.cls-7{stroke-dasharray:1.716 2.288;}</style></defs><title>mechanical</title><g id="grid"><g class="cls-1"><line class="cls-2" x1="13452.409" y1="5684.749" x2="28.394" y2="-1008.218"/><line class="cls-2" x1="13434.622" y1="5702.537" x2="10.606" y2="-990.43"/><line class="cls-2" x1="13416.834" y1="5720.324" x2="-7.181" y2="-972.643"/><line class="cls-2" x1="13399.046" y1="5738.112" x2="-24.969" y2="-954.855"/><line class="cls-2" x1="13381.259" y1="5755.9" x2="-42.757" y2="-937.068"/><line class="cls-2" x1="13363.471" y1="5773.687" x2="-60.544" y2="-919.28"/><line class="cls-2" x1="13345.684" y1="5791.475" x2="-78.332" y2="-901.492"/><line class="cls-2" x1="13327.896" y1="5809.262" x2="-96.119" y2="-883.705"/><line class="cls-2" x1="13310.109" y1="5827.05" x2="-113.907" y2="-865.917"/><line class="cls-2" x1="13292.321" y1="5844.837" x2="-131.694" y2="-848.13"/><line class="cls-2" x1="13274.533" y1="5862.625" x2="-149.482" y2="-830.342"/><line class="cls-2" x1="13256.746" y1="5880.413" x2="-167.27" y2="-812.555"/><line class="cls-2" x1="13238.958" y1="5898.2" x2="-185.057" y2="-794.767"/><line class="cls-2" x1="13221.171" y1="5915.988" x2="-202.845" y2="-776.979"/><line class="cls-2" x1="13203.383" y1="5933.775" x2="-220.632" y2="-759.192"/><line class="cls-2" x1="13185.596" y1="5951.563" x2="-238.42" y2="-741.404"/><line class="cls-2" x1="13167.808" y1="5969.35" x2="-256.207" y2="-723.617"/><line class="cls-2" x1="13150.02" y1="5987.138" x2="-273.995" y2="-705.829"/><line class="cls-2" x1="13132.233" y1="6004.926" x2="-291.783" y2="-688.042"/><line class="cls-2" x1="13114.445" y1="6022.713" x2="-309.57" y2="-670.254"/><line class="cls-2" x1="13096.658" y1="6040.501" x2="-327.358" y2="-652.466"/><line class="cls-2" x1="13078.87" y1="6058.288" x2="-345.145" y2="-634.679"/><line class="cls-2" x1="13061.083" y1="6076.076" x2="-362.933" y2="-616.891"/><line class="cls-2" x1="13043.295" y1="6093.863" x2="-380.72" y2="-599.104"/><line class="cls-2" x1="13025.507" y1="6111.651" x2="-398.508" y2="-581.316"/></g></g><path class="cls-3" d="M17.683,23.22c.042-.194.077-.391.1-.592s.04-.4.047-.6l-1.309-.572a4.969,4.969,0,0,0-.212-1.1L17.352,19.3a6.508,6.508,0,0,0-.534-1.036l-1.475.324a5.029,5.029,0,0,0-.82-.769l.243-1.576a6.141,6.141,0,0,0-.99-.486L12.7,16.968a4.93,4.93,0,0,0-1.115-.141l-.739-1.436a6.141,6.141,0,0,0-1.079.225L9.615,17.2a5.029,5.029,0,0,0-.985.541l-1.349-.68a6.508,6.508,0,0,0-.774.871l.748,1.274a4.969,4.969,0,0,0-.48,1.017l-1.41.229c-.042.194-.077.391-.1.592s-.04.4-.047.6l1.309.572a4.969,4.969,0,0,0,.212,1.1L5.7,24.373a6.508,6.508,0,0,0,.534,1.036L7.7,25.084a5.029,5.029,0,0,0,.82.769l-.243,1.576a6.141,6.141,0,0,0,.99.486l1.072-1.207a4.93,4.93,0,0,0,1.115.141l.739,1.436a6.141,6.141,0,0,0,1.079-.225l.156-1.587a5.029,5.029,0,0,0,.985-.541l1.349.68a6.508,6.508,0,0,0,.774-.871l-.748-1.274a4.969,4.969,0,0,0,.48-1.017Z"/><path class="cls-3" d="M33.561,15.274c0-.269-.011-.54-.036-.813s-.063-.542-.112-.806l-1.9-.375a6.73,6.73,0,0,0-.6-1.4l1.07-1.689a8.812,8.812,0,0,0-1.007-1.214l-1.856.858a6.805,6.805,0,0,0-1.307-.778L27.679,6.9a8.309,8.309,0,0,0-1.45-.355L25.163,8.455a6.668,6.668,0,0,0-1.515.138L22.254,6.91a8.309,8.309,0,0,0-1.361.612l.256,2.144a6.805,6.805,0,0,0-1.144,1l-1.981-.507a8.812,8.812,0,0,0-.77,1.377L18.612,13a6.73,6.73,0,0,0-.338,1.485l-1.8.713c0,.269.011.54.036.813s.063.542.112.806l1.9.375a6.73,6.73,0,0,0,.6,1.4l-1.07,1.689A8.812,8.812,0,0,0,19.06,21.5l1.856-.858a6.805,6.805,0,0,0,1.307.778l.137,2.155a8.308,8.308,0,0,0,1.45.355l1.066-1.908a6.668,6.668,0,0,0,1.515-.138l1.394,1.683a8.308,8.308,0,0,0,1.361-.612L28.89,20.81a6.805,6.805,0,0,0,1.144-1l1.981.507a8.812,8.812,0,0,0,.77-1.377l-1.359-1.467a6.73,6.73,0,0,0,.338-1.485Z"/><path class="cls-4" d="M21.233,15.479a3.684,3.684,0,1,0,1.2-3.069"/><circle class="cls-3" cx="11.514" cy="21.915" r="2.211" transform="translate(-12.483 15.832) rotate(-48.058)"/><path class="cls-5" d="M24.567,11.474a3.684,3.684,0,1,0,3.069,1.2"/><circle class="cls-5" cx="11.514" cy="21.915" r="0.737" transform="translate(-12.309 28.646) rotate(-78.058)"/><circle class="cls-3" cx="24.902" cy="15.143" r="2.211" transform="translate(-1.275 2.329) rotate(-5.222)"/><circle class="cls-5" cx="24.902" cy="15.143" r="0.737" transform="matrix(0.996, -0.091, 0.091, 0.996, -1.275, 2.329)"/><path class="cls-6" d="M21,4.438q-.353.131-.694.284"/><path class="cls-7" d="M18.329,5.861a11.554,11.554,0,0,0-4.1,5.378"/><path class="cls-6" d="M13.881,12.335q-.094.362-.164.732"/></svg>