<svg id="Layer_1" data-name="Layer 1" xmlns="http://www.w3.org/2000/svg" viewBox="0 0 40 30"><defs><style>.cls-1{fill:#f7f7f7;}.cls-1,.cls-2,.cls-3,.cls-4,.cls-5,.cls-6{stroke:#6a6a6a;stroke-width:0.5px;}.cls-1,.cls-2,.cls-3,.cls-5,.cls-6,.cls-8{stroke-linejoin:round;}.cls-2,.cls-3,.cls-4{fill:#fff;}.cls-2,.cls-4,.cls-5,.cls-6{stroke-linecap:round;}.cls-4{stroke-miterlimit:10;}.cls-5,.cls-6,.cls-8{fill:none;}.cls-6{stroke-dasharray:1.59 2.12;}.cls-7{opacity:0.41;}.cls-8{stroke:#1a8aca;stroke-width:0.1px;}</style></defs><title>software</title><path class="cls-1" d="M36.21,25.92H3.675V8.157a1,1,0,0,1,1-1H35.21a1,1,0,0,1,1,1Z"/><polyline class="cls-2" points="5.511 26.052 5.511 9.04 34.375 9.04 34.375 13.584 34.375 16.662 34.375 19.666 34.375 26.067"/><rect class="cls-3" x="7.505" y="13.43" width="24.142" height="8.168"/><line class="cls-2" x1="13.997" y1="17.317" x2="25.325" y2="17.317"/><line class="cls-4" x1="7.505" y1="24.099" x2="31.648" y2="24.099"/><line class="cls-2" x1="13.997" y1="19.373" x2="22.223" y2="19.373"/><line class="cls-2" x1="13.997" y1="15.215" x2="25.325" y2="15.215"/><line class="cls-2" x1="11.153" y1="17.341" x2="9.484" y2="17.341"/><line class="cls-2" x1="11.153" y1="19.396" x2="9.941" y2="19.396"/><line class="cls-2" x1="11.153" y1="15.238" x2="9.484" y2="15.238"/><line class="cls-2" x1="5.669" y1="11.563" x2="32.168" y2="11.563"/><line class="cls-5" x1="7.148" y1="10.302" x2="7.898" y2="10.302"/><line class="cls-6" x1="10.018" y1="10.302" x2="16.379" y2="10.302"/><line class="cls-5" x1="17.439" y1="10.302" x2="18.189" y2="10.302"/><path class="cls-1" d="M.395,25.92h39.1a0,0,0,0,1,0,0v1.156a1,1,0,0,1-1,1H1.395a1,1,0,0,1-1-1V25.92A0,0,0,0,1,.395,25.92Z"/><g id="grid"><g class="cls-7"><line class="cls-8" x1="13461.347" y1="5595.811" x2="37.332" y2="-1097.156"/><line class="cls-8" x1="13443.559" y1="5613.599" x2="19.544" y2="-1079.368"/><line class="cls-8" x1="13425.772" y1="5631.387" x2="1.756" y2="-1061.581"/><line class="cls-8" x1="13407.984" y1="5649.174" x2="-16.031" y2="-1043.793"/><line class="cls-8" x1="13390.197" y1="5666.962" x2="-33.819" y2="-1026.005"/><line class="cls-8" x1="13372.409" y1="5684.749" x2="-51.606" y2="-1008.218"/><line class="cls-8" x1="13354.622" y1="5702.537" x2="-69.394" y2="-990.43"/><line class="cls-8" x1="13336.834" y1="5720.324" x2="-87.181" y2="-972.643"/><line class="cls-8" x1="13319.046" y1="5738.112" x2="-104.969" y2="-954.855"/><line class="cls-8" x1="13301.259" y1="5755.9" x2="-122.757" y2="-937.068"/><line class="cls-8" x1="13283.471" y1="5773.687" x2="-140.544" y2="-919.28"/><line class="cls-8" x1="13265.684" y1="5791.475" x2="-158.332" y2="-901.492"/><line class="cls-8" x1="13247.896" y1="5809.262" x2="-176.119" y2="-883.705"/><line class="cls-8" x1="13230.109" y1="5827.05" x2="-193.907" y2="-865.917"/><line class="cls-8" x1="13212.321" y1="5844.837" x2="-211.694" y2="-848.13"/><line class="cls-8" x1="13194.533" y1="5862.625" x2="-229.482" y2="-830.342"/><line class="cls-8" x1="13176.746" y1="5880.413" x2="-247.27" y2="-812.555"/><line class="cls-8" x1="13158.958" y1="5898.2" x2="-265.057" y2="-794.767"/><line class="cls-8" x1="13141.171" y1="5915.988" x2="-282.845" y2="-776.979"/><line class="cls-8" x1="13123.383" y1="5933.775" x2="-300.632" y2="-759.192"/><line class="cls-8" x1="13105.596" y1="5951.563" x2="-318.42" y2="-741.404"/><line class="cls-8" x1="13087.808" y1="5969.35" x2="-336.207" y2="-723.617"/><line class="cls-8" x1="13070.02" y1="5987.138" x2="-353.995" y2="-705.829"/><line class="cls-8" x1="13052.233" y1="6004.926" x2="-371.783" y2="-688.042"/><line class="cls-8" x1="13034.445" y1="6022.713" x2="-389.57" y2="-670.254"/><line class="cls-8" x1="13016.658" y1="6040.501" x2="-407.358" y2="-652.466"/><line class="cls-8" x1="12998.87" y1="6058.288" x2="-425.145" y2="-634.679"/><line class="cls-8" x1="12981.083" y1="6076.076" x2="-442.933" y2="-616.891"/><line class="cls-8" x1="12963.295" y1="6093.863" x2="-460.72" y2="-599.104"/><line class="cls-8" x1="12945.507" y1="6111.651" x2="-478.508" y2="-581.316"/></g></g><circle class="cls-2" cx="17.129" cy="24.106" r="0.626"/><circle class="cls-2" cx="20.05" cy="24.106" r="0.626"/><circle class="cls-2" cx="22.97" cy="24.092" r="0.626"/><line class="cls-2" x1="12.398" y1="13.43" x2="12.398" y2="21.598"/></svg>