<svg id="Layer_1" data-name="Layer 1" xmlns="http://www.w3.org/2000/svg" viewBox="0 0 40 30"><defs><style>.cls-1,.cls-7{fill:#fff;}.cls-2,.cls-3,.cls-5,.cls-8{fill:none;}.cls-2,.cls-3,.cls-6,.cls-7,.cls-8{stroke:#6a6a6a;stroke-width:0.5px;}.cls-2,.cls-3,.cls-7,.cls-8{stroke-linecap:round;}.cls-2,.cls-3,.cls-5,.cls-6,.cls-8{stroke-linejoin:round;}.cls-3{stroke-dasharray:1.3 1.733;}.cls-4{opacity:0.41;}.cls-5{stroke:#1a8aca;stroke-width:0.1px;}.cls-6{fill:#f7f7f7;}.cls-7{stroke-miterlimit:10;}.cls-8{stroke-dasharray:1.152 1.537;}</style></defs><title>systems</title><path class="cls-1" d="M13.577,15.109H10.343a.838.838,0,0,1-.82-.855V12.528"/><line class="cls-2" x1="13.577" y1="15.109" x2="12.827" y2="15.109"/><path class="cls-3" d="M11.094,15.109h-.751a.838.838,0,0,1-.82-.855v-.108"/><line class="cls-2" x1="9.522" y1="13.278" x2="9.522" y2="12.528"/><path class="cls-1" d="M26.455,15.109h3.234a.838.838,0,0,1,.82.855v1.725"/><line class="cls-2" x1="26.455" y1="15.109" x2="27.205" y2="15.109"/><path class="cls-3" d="M28.938,15.109h.751a.838.838,0,0,1,.82.855v.108"/><line class="cls-2" x1="30.509" y1="16.939" x2="30.509" y2="17.689"/><path class="cls-1" d="M13.678,26.076H10.444a.838.838,0,0,1-.82-.855V23.5"/><line class="cls-2" x1="13.678" y1="26.076" x2="12.928" y2="26.076"/><path class="cls-3" d="M11.195,26.076h-.751a.838.838,0,0,1-.82-.855v-.108"/><line class="cls-2" x1="9.624" y1="24.246" x2="9.624" y2="23.496"/><g id="grid"><g class="cls-4"><line class="cls-5" x1="13452.497" y1="5524.661" x2="28.482" y2="-1168.306"/><line class="cls-5" x1="13434.71" y1="5542.449" x2="10.694" y2="-1150.518"/><line class="cls-5" x1="13416.922" y1="5560.236" x2="-7.093" y2="-1132.731"/><line class="cls-5" x1="13399.135" y1="5578.024" x2="-24.881" y2="-1114.943"/><line class="cls-5" x1="13381.347" y1="5595.811" x2="-42.668" y2="-1097.156"/><line class="cls-5" x1="13363.559" y1="5613.599" x2="-60.456" y2="-1079.368"/><line class="cls-5" x1="13345.772" y1="5631.387" x2="-78.244" y2="-1061.581"/><line class="cls-5" x1="13327.984" y1="5649.174" x2="-96.031" y2="-1043.793"/><line class="cls-5" x1="13310.197" y1="5666.962" x2="-113.819" y2="-1026.005"/><line class="cls-5" x1="13292.409" y1="5684.749" x2="-131.606" y2="-1008.218"/><line class="cls-5" x1="13274.622" y1="5702.537" x2="-149.394" y2="-990.43"/><line class="cls-5" x1="13256.834" y1="5720.324" x2="-167.181" y2="-972.643"/><line class="cls-5" x1="13239.046" y1="5738.112" x2="-184.969" y2="-954.855"/><line class="cls-5" x1="13221.259" y1="5755.9" x2="-202.757" y2="-937.068"/><line class="cls-5" x1="13203.471" y1="5773.687" x2="-220.544" y2="-919.28"/><line class="cls-5" x1="13185.684" y1="5791.475" x2="-238.332" y2="-901.492"/><line class="cls-5" x1="13167.896" y1="5809.262" x2="-256.119" y2="-883.705"/><line class="cls-5" x1="13150.109" y1="5827.05" x2="-273.907" y2="-865.917"/><line class="cls-5" x1="13132.321" y1="5844.837" x2="-291.694" y2="-848.13"/><line class="cls-5" x1="13114.533" y1="5862.625" x2="-309.482" y2="-830.342"/><line class="cls-5" x1="13096.746" y1="5880.413" x2="-327.27" y2="-812.555"/><line class="cls-5" x1="13078.958" y1="5898.2" x2="-345.057" y2="-794.767"/><line class="cls-5" x1="13061.171" y1="5915.988" x2="-362.845" y2="-776.979"/><line class="cls-5" x1="13043.383" y1="5933.775" x2="-380.632" y2="-759.192"/><line class="cls-5" x1="13025.596" y1="5951.563" x2="-398.42" y2="-741.404"/><line class="cls-5" x1="13007.808" y1="5969.35" x2="-416.207" y2="-723.617"/><line class="cls-5" x1="12990.02" y1="5987.138" x2="-433.995" y2="-705.829"/><line class="cls-5" x1="12972.233" y1="6004.926" x2="-451.783" y2="-688.042"/><line class="cls-5" x1="12954.445" y1="6022.713" x2="-469.57" y2="-670.254"/><line class="cls-5" x1="12936.658" y1="6040.501" x2="-487.358" y2="-652.466"/><line class="cls-5" x1="12918.87" y1="6058.288" x2="-505.145" y2="-634.679"/><line class="cls-5" x1="12901.083" y1="6076.076" x2="-522.933" y2="-616.891"/><line class="cls-5" x1="12883.295" y1="6093.863" x2="-540.72" y2="-599.104"/><line class="cls-5" x1="12865.507" y1="6111.651" x2="-558.508" y2="-581.316"/></g></g><rect class="cls-6" x="27.346" y="4.473" width="3.604" height="10.305" rx="1" ry="1" transform="translate(38.773 -19.523) rotate(90)"/><rect class="cls-6" x="9.151" y="4.473" width="3.604" height="10.305" rx="1" ry="1" transform="translate(20.578 -1.328) rotate(90)"/><circle class="cls-7" cx="32.499" cy="9.625" r="0.626"/><circle class="cls-7" cx="14.479" cy="9.625" r="0.626"/><line class="cls-7" x1="7.598" y1="9.625" x2="11.651" y2="9.625"/><line class="cls-7" x1="25.51" y1="9.625" x2="29.563" y2="9.625"/><line class="cls-2" x1="17.164" y1="9.532" x2="17.914" y2="9.532"/><line class="cls-8" x1="19.45" y1="9.532" x2="21.371" y2="9.532"/><line class="cls-2" x1="22.139" y1="9.532" x2="22.889" y2="9.532"/><rect class="cls-6" x="27.245" y="15.44" width="3.604" height="10.305" rx="1" ry="1" transform="translate(49.639 -8.455) rotate(90)"/><rect class="cls-6" x="9.05" y="15.44" width="3.604" height="10.305" rx="1" ry="1" transform="translate(31.444 9.74) rotate(90)"/><line class="cls-2" x1="17.188" y1="20.592" x2="17.938" y2="20.592"/><line class="cls-8" x1="19.474" y1="20.592" x2="21.395" y2="20.592"/><line class="cls-2" x1="22.163" y1="20.592" x2="22.913" y2="20.592"/><circle class="cls-7" cx="32.398" cy="20.592" r="0.626"/><circle class="cls-7" cx="14.378" cy="20.592" r="0.626"/><line class="cls-7" x1="7.497" y1="20.592" x2="11.55" y2="20.592"/><line class="cls-7" x1="25.409" y1="20.592" x2="29.462" y2="20.592"/><rect class="cls-6" x="18.272" y="9.956" width="3.604" height="10.305" rx="1" ry="1" transform="translate(35.183 -4.966) rotate(90)"/><circle class="cls-7" cx="23.6" cy="15.109" r="0.626"/><line class="cls-7" x1="16.328" y1="15.109" x2="20.381" y2="15.109"/><rect class="cls-6" x="18.081" y="20.924" width="3.604" height="10.305" rx="1.802" ry="1.802" transform="translate(45.958 6.193) rotate(90)"/><line class="cls-7" x1="16.248" y1="26.024" x2="20.301" y2="26.024"/><path class="cls-1" d="M26.313,26.076h3.234a.838.838,0,0,0,.82-.855V23.5"/><line class="cls-2" x1="26.313" y1="26.076" x2="27.063" y2="26.076"/><path class="cls-3" d="M28.8,26.076h.751a.838.838,0,0,0,.82-.855v-.108"/><line class="cls-2" x1="30.367" y1="24.246" x2="30.367" y2="23.496"/></svg>