<?xml version="1.0" encoding="UTF-8"?>
<svg width="68px" height="36px" viewBox="0 0 68 36" version="1.1" xmlns="http://www.w3.org/2000/svg" xmlns:xlink="http://www.w3.org/1999/xlink">
    <!-- Generator: Sketch 50.2 (55047) - http://www.bohemiancoding.com/sketch -->
    <title>logo copy 3</title>
    <desc>Created with Sketch.</desc>
    <defs></defs>
    <g id="Page-1" stroke="none" stroke-width="1" fill="none" fill-rule="evenodd" stroke-linecap="round" stroke-linejoin="round">
        <g id="Artboard" transform="translate(-436.000000, -138.000000)" stroke-width="7">
            <g id="logo-copy-3" transform="translate(440.000000, 142.000000)">
                <path d="M0,28 L10,0" id="Triangle-Copy-6" stroke="#5EA685" transform="translate(5.000000, 14.000000) scale(1, -1) translate(-5.000000, -14.000000) "></path>
                <path d="M20,28 L30,0" id="Triangle-Copy-7" stroke="#5EA694" transform="translate(25.000000, 14.000000) scale(1, -1) translate(-25.000000, -14.000000) "></path>
                <path d="M0,28 L10,0" id="Triangle-Copy-17" stroke="#5EA694" transform="translate(5.000000, 14.000000) scale(1, -1) translate(-5.000000, -14.000000) "></path>
                <path d="M40,28 L50,0" id="Triangle-Copy-8" stroke="#5EA694" transform="translate(45.000000, 14.000000) scale(1, -1) translate(-45.000000, -14.000000) "></path>
                <path d="M10,0 L20,28" id="Triangle-Copy-3" stroke="#8FC3A9" transform="translate(15.000000, 14.000000) scale(1, -1) translate(-15.000000, -14.000000) "></path>
                <path d="M30,0 L40,28" id="Triangle-Copy-4" stroke="#8FC3A9" transform="translate(35.000000, 14.000000) scale(1, -1) translate(-35.000000, -14.000000) "></path>
                <path d="M50,0 L60,28" id="Triangle-Copy-5" stroke="#8FC3A9" transform="translate(55.000000, 14.000000) scale(1, -1) translate(-55.000000, -14.000000) "></path>
            </g>
        </g>
    </g>
</svg>