<?xml version="1.0" encoding="UTF-8"?>
<svg width="542px" height="394px" viewBox="0 0 542 394" version="1.1" xmlns="http://www.w3.org/2000/svg" xmlns:xlink="http://www.w3.org/1999/xlink">
    <!-- Generator: Sketch 54.1 (76490) - https://sketchapp.com -->
    <title>Path</title>
    <desc>Created with Sketch.</desc>
    <g id="Page-1" stroke="none" stroke-width="1" fill="none" fill-rule="evenodd">
        <path d="M182.769531,250.499023 C182.769531,175.619141 322.266602,134.910156 322.266602,217.073242 C322.266602,299.236328 180.313477,319.916992 180.313477,250.499023 C180.313477,181.081055 330.547852,116.728516 330.547852,217.073242 C330.547852,317.417969 178.387695,320.542969 178.387695,250.499023 C178.387695,180.455078 337.22168,93.7226563 337.22168,217.073242 C337.22168,340.423828 176.600586,328.316406 176.600586,250.499023 C176.600586,172.681641 347.058594,82.5566406 347.058594,217.073242 C347.058594,351.589844 174.77832,321.978516 174.77832,250.499023 C174.77832,179.019531 313.900391,105.414062 313.900391,215.487305 C313.900391,325.560547 116.390625,265.169922 116.390625,190.584961 C116.390625,116 309.806641,62.6054688 309.806641,217.073242 C309.806641,371.541016 75.1796875,321.769531 75.1796875,156.634766 C75.1796875,-8.5 317.638672,45.8886488 317.638672,213.927723 C317.638672,381.966797 1.16601563,221.113281 1.16601563,82.5566406 C1.16601563,-56 305.941406,36.9765625 305.941406,215.487305 C305.941406,393.998047 140.613281,315.958984 140.613281,242.966797 C140.613281,169.974609 421.382813,47.7871094 421.382813,197.896484 C421.382813,348.005859 155.453125,356.496094 155.453125,238.632813 C155.453125,120.769531 529.535156,108.605469 529.535156,210.03125 C529.535156,311.457031 164.097656,377.238281 164.097656,242.966797 C164.097656,108.695313 541.130859,24.7382813 541.130859,156.634766 C541.130859,288.53125 69.9960938,412.607422 69.9960938,242.966797 C69.9960938,73.3261719 388.224609,-121.537109 388.224609,101.359375 C388.224609,324.255859 33.4160156,493.630859 33.4160156,325.132813 C33.4160156,156.634766 472.605469,-102.273438 472.605469,72.515625 C472.605469,247.304688 182.769531,325.378906 182.769531,250.499023 Z" id="Path" stroke="#979797"></path>
    </g>
</svg>